<mxfile host="app.diagrams.net" modified="2023-11-29T16:11:22.776Z" agent="Mozilla/5.0 (Macintosh; Intel Mac OS X 10_15_7) AppleWebKit/537.36 (KHTML, like Gecko) Chrome/119.0.0.0 Safari/537.36" version="22.1.5" etag="ITWKRnidUNJmNbO7TCf-" type="github">
  <diagram name="Page-1" id="JEvV4KB_SrcCvdY6_MqZ">
    <mxGraphModel>
      <root>
        <mxCell id="0" />
        <mxCell id="1" parent="0" />
      </root>
    </mxGraphModel>
  </diagram>
</mxfile>
